<?xml version="1.0" standalone="no"?><!DOCTYPE svg PUBLIC "-//W3C//DTD SVG 1.1//EN" "http://www.w3.org/Graphics/SVG/1.1/DTD/svg11.dtd"><svg t="1782009160109" class="icon" viewBox="0 0 1024 1024" version="1.1" xmlns="http://www.w3.org/2000/svg" p-id="5087" data-spm-anchor-id="a313x.search_index.0.i1.2bdd3a81nXwy96" xmlns:xlink="http://www.w3.org/1999/xlink" width="200" height="200"><path d="M512 1004.8c-19.2 0-32-6.4-51.2-12.8l-358.4-192c-32-19.2-57.6-57.6-57.6-96V320c0-38.4 19.2-76.8 57.6-96l358.4-192C492.8 12.8 531.2 12.8 563.2 32l358.4 192c32 19.2 57.6 57.6 57.6 96v128c0 19.2-12.8 32-32 32s-38.4-12.8-38.4-32V320c0-12.8-6.4-25.6-19.2-32l-358.4-192c-12.8-6.4-25.6-6.4-38.4 0l-358.4 192c-6.4 6.4-19.2 19.2-19.2 32v384c0 12.8 6.4 25.6 19.2 32l358.4 192c12.8 6.4 25.6 6.4 38.4 0l358.4-192c12.8-6.4 19.2-19.2 19.2-32V620.8c0-19.2 12.8-32 32-32s32 12.8 32 32V704c0 38.4-19.2 76.8-57.6 96l-358.4 192c-12.8 6.4-25.6 12.8-44.8 12.8z" p-id="5088" fill="#ffffff"></path><path d="M512 524.8c-6.4 0-12.8 0-19.2-6.4L281.6 384c-12.8-12.8-19.2-32-12.8-44.8 12.8-19.2 32-19.2 51.2-12.8L512 448l198.4-121.6c12.8-6.4 38.4-6.4 44.8 12.8 12.8 12.8 6.4 32-6.4 44.8L531.2 518.4c-6.4 0-12.8 6.4-19.2 6.4z" p-id="5089" fill="#ffffff"></path><path d="M512 768c-19.2 0-32-12.8-32-32V492.8c0-19.2 12.8-32 32-32s32 12.8 32 32v243.2c6.4 12.8-12.8 32-32 32z" p-id="5090" fill="#ffffff"></path></svg>