<?xml version="1.0" standalone="no"?><!DOCTYPE svg PUBLIC "-//W3C//DTD SVG 1.1//EN" "http://www.w3.org/Graphics/SVG/1.1/DTD/svg11.dtd"><svg viewBox="0 0 1024 1024" version="1.1" xmlns="http://www.w3.org/2000/svg" xmlns:xlink="http://www.w3.org/1999/xlink" width="200" height="200"><path d="M896 224H480L384 128H128C74.98 128 32 170.98 32 224v576c0 53.02 42.98 96 96 96h768c53.02 0 96-42.98 96-96V320c0-53.02-42.98-96-96-96zM128 224h288l64 64h416c17.673 0 32 14.327 32 32v64H96v-96c0-17.673 14.327-32 32-32zm768 576H128V384h768v416c0 17.673-14.327 32-32 32z" fill="#ffffff"/></svg>