<?xml version="1.0" standalone="no"?><!DOCTYPE svg PUBLIC "-//W3C//DTD SVG 1.1//EN" "http://www.w3.org/Graphics/SVG/1.1/DTD/svg11.dtd"><svg t="1782287128678" class="icon" viewBox="0 0 1109 1024" version="1.1" xmlns="http://www.w3.org/2000/svg" p-id="20273" xmlns:xlink="http://www.w3.org/1999/xlink" width="216.6015625" height="200"><path d="M317.411962 0.00512a51.195478 51.195478 0 0 1 1.450538 102.390955H186.010236a51.195478 51.195478 0 0 0-51.195478 49.744939v718.016575a51.195478 51.195478 0 0 0 49.744939 51.195478h718.016575a51.195478 51.195478 0 0 0 51.195478-49.830265V752.407991a51.195478 51.195478 0 0 1 102.390956-1.450539V870.157589a153.586433 153.586433 0 0 1-151.02666 153.501108H185.839584a153.586433 153.586433 0 0 1-153.586433-151.026659V153.591553A153.586433 153.586433 0 0 1 183.450462 0.00512h134.132152z m585.334962 0a153.586433 153.586433 0 0 1 153.501107 151.026659v258.451837a51.195478 51.195478 0 0 1-102.390955 1.450538V174.496373L426.287678 702.151097c-21.672752 21.672752-43.43083 23.891223-65.103583 6.48476l-7.252692-6.48476c-24.1472-24.1472-24.1472-48.294401 0-72.441601l527.31342-527.398747H646.769535A51.195478 51.195478 0 0 1 645.318997 0.00512h257.427927z" fill="#ffffff" p-id="20274"></path></svg>