<?xml version="1.0" standalone="no"?><!DOCTYPE svg PUBLIC "-//W3C//DTD SVG 1.1//EN" "http://www.w3.org/Graphics/SVG/1.1/DTD/svg11.dtd"><svg t="1782286489706" class="icon" viewBox="0 0 1024 1024" version="1.1" xmlns="http://www.w3.org/2000/svg" p-id="12578" xmlns:xlink="http://www.w3.org/1999/xlink" width="200" height="200"><path d="M832 0H192a192 192 0 0 0-192 192v640a192 192 0 0 0 192 192h640a192 192 0 0 0 192-192V192a192 192 0 0 0-192-192zM128 192c0-35.328 28.672-64 64-64h64c35.328 0 64 28.672 64 64v64c0 35.328-28.672 64-64 64H192c-35.328 0-64-28.672-64-64V192z m768 640c0 35.392-28.608 64-64 64H192a64 64 0 0 1-64-64V448h229.504l152.384 152.384-43.136 44.224c-18.304 18.304-23.808 50.624-13.888 74.496S486.08 768 512 768h180.992c17.664 0 39.168-16.64 50.752-28.096 11.584-11.648 24.256-37.056 24.256-54.72v-181.056c0-25.856-21.12-49.216-44.992-59.136-23.872-9.92-56.96-4.416-75.264 13.888l-48.576 49.856L448 357.504V128h384a64 64 0 0 1 64 64v640z" fill="#ffffff" p-id="12579"></path></svg>