<?xml version="1.0" standalone="no"?><!DOCTYPE svg PUBLIC "-//W3C//DTD SVG 1.1//EN" "http://www.w3.org/Graphics/SVG/1.1/DTD/svg11.dtd"><svg t="1782286642854" class="icon" viewBox="0 0 1024 1024" version="1.1" xmlns="http://www.w3.org/2000/svg" p-id="16152" xmlns:xlink="http://www.w3.org/1999/xlink" width="200" height="200"><path d="M866.016 105.76c-50.624-5.504-101.024-4.864-134.688-3.36a110.72 110.72 0 0 0-75.04 34.88c-91.168 95.712-187.648 207.552-261.312 295.424a9683.456 9683.456 0 0 0-70.272 84.768c21.76 20.16 46.56 43.616 72.768 69.376L743.904 240.416a28.032 28.032 0 1 1 39.68 39.68L437.12 626.528c25.76 26.24 49.216 50.976 69.408 72.768a9595.2 9595.2 0 0 0 84.768-70.272c87.84-73.664 199.68-170.176 295.424-261.312a110.72 110.72 0 0 0 34.88-75.072c1.504-33.632 2.144-84.032-3.36-134.656a58.784 58.784 0 0 0-52.224-52.224z" p-id="16153" fill="#ffffff"></path><path d="M231.872 491.456c-13.472-11.84-33.632-15.232-49.632-4.16-12.416 8.64-28.256 21.952-40.96 40.288-11.296 16.224-6.944 36.672 4.864 49.824 17.056 18.976 46.944 51.808 84.736 91.296l-2.336 16.16a102.816 102.816 0 0 1-29.056 58.176l-22.048 22.048c-20.8-0.032-38.944 2.656-51.552 5.248a38.848 38.848 0 0 0-30.304 29.76c-8.736 39.584-4.032 76.768 0.352 98.048 3.104 15.072 14.592 26.944 29.76 30.304 39.584 8.704 76.768 4 98.048-0.352 15.072-3.104 26.944-14.592 30.304-29.76 4-18.24 5.152-35.904 4.832-51.712l22.08-22.08a102.848 102.848 0 0 1 58.176-29.088l16.192-2.304a4035.328 4035.328 0 0 0 91.264 84.704c13.152 11.84 33.6 16.16 49.824 4.864a163.808 163.808 0 0 0 40.256-40.96c11.104-16 7.68-36.16-4.16-49.632a3367.104 3367.104 0 0 0-145.44-155.2 3366.976 3366.976 0 0 0-155.2-145.472z" p-id="16154" fill="#ffffff"></path></svg>